<?xml version="1.0" encoding="utf-8"?><!DOCTYPE svg PUBLIC "-//W3C//DTD SVG 1.1//EN" "http://www.w3.org/Graphics/SVG/1.1/DTD/svg11.dtd"><svg viewBox="0 0 800 800" xmlns="http://www.w3.org/2000/svg" xmlns:xlink="http://www.w3.org/1999/xlink"><style>:root>svg{display:none}:root>svg:target{display:block}</style><svg viewBox="0 0 1024 1024" class="cicon" id="contact--address" xmlns="http://www.w3.org/2000/svg"><path d="M512 1012.8C258.4 1012.8.8 958.4.8 854.4c0-92.8 198.4-131.2 283.2-143.2h3.2c12 0 22.4 8.8 24 20.8.8 6.4-.8 12.8-4.8 17.6-4 4.8-9.6 8.8-16 9.6-176.8 25.6-242.4 72-242.4 96 0 44.8 180.8 110.4 463.2 110.4S974.4 900 974.4 855.2c0-24-66.4-70.4-244.8-96-6.4-.8-12-4-16-9.6-4-4.8-5.6-11.2-4.8-17.6 1.6-12 12-20.8 24-20.8h3.2c85.6 12 285.6 50.4 285.6 143.2.8 103.2-256 158.4-509.6 158.4zm-16.8-169.6c-12-11.2-288.8-272.8-288.8-529.6 0-168 136.8-304.8 304.8-304.8S816 145.6 816 313.6c0 249.6-276.8 517.6-288.8 528.8l-16 16-16-15.2zM512 56.8c-141.6 0-256.8 115.2-256.8 256.8 0 200.8 196 416 256.8 477.6 61.6-63.2 257.6-282.4 257.6-477.6-.8-140.8-116-256.8-257.6-256.8zm0 392.8c-80 0-144.8-64.8-144.8-144.8S432 160 512 160c80 0 144.8 64.8 144.8 144.8 0 80-64.8 144.8-144.8 144.8zm0-241.6c-53.6 0-96.8 43.2-96.8 96.8s43.2 96.8 96.8 96.8c53.6 0 96.8-43.2 96.8-96.8S564.8 208 512 208z"/></svg><svg viewBox="0 0 24 24" id="contact--email" xmlns="http://www.w3.org/2000/svg"><path d="M3.293 5.293A.997.997 0 0 1 4 5h16c.276 0 .526.112.707.293m-17.414 0A.997.997 0 0 0 3 6v12a1 1 0 0 0 1 1h16a1 1 0 0 0 1-1V6a.997.997 0 0 0-.293-.707m-17.414 0 7.293 7.293a2 2 0 0 0 2.828 0l7.293-7.293" fill="none" stroke="#fba419" stroke-width="1.5" stroke-linecap="round" stroke-linejoin="round"/></svg><svg viewBox="0 0 48 48" id="contact--phone" xmlns="http://www.w3.org/2000/svg"><rect x="9" y="1" width="30" height="46" rx="2" ry="2" fill="none" stroke="#fba419" stroke-linecap="round" stroke-miterlimit="10" stroke-width="2"/><path fill="none" stroke="#fba419" stroke-miterlimit="10" stroke-width="2" d="M9 36h30M9 7h30"/><circle cx="24.5" cy="41.5" r="2"/><path fill="none" d="M0 0h48v48H0z"/></svg><svg viewBox="0 0 24 24" fill="none" stroke="#fba419" id="feature--check" xmlns="http://www.w3.org/2000/svg"><g clip-path="url(#fa)" stroke-width="2.5" stroke-linecap="round" stroke-linejoin="round"><circle cx="12" cy="12" r="9"/><path d="m15 10-4 4-2-2"/></g><defs><clipPath id="fa"><path fill="#fff" d="M0 0h24v24H0z"/></clipPath></defs></svg><svg viewBox="0 0 20 20" id="feature--click-cursor" xmlns="http://www.w3.org/2000/svg"><path d="M3.465.465a5 5 0 0 0 0 7.07l.707-.707a4 4 0 0 1 0-5.656L3.465.465zm10.07 0-.707.707a4 4 0 0 1 0 5.656l.707.707a5 5 0 0 0 0-7.07zM4.88 1.879a3 3 0 0 0 0 4.242l.707-.707a2 2 0 0 1 0-2.828l-.707-.707zm7.242 0-.707.707a2 2 0 0 1 0 2.828l.707.707a3 3 0 0 0 0-4.242zM7 2v8.293l-1.5-1.5-1.762 1.762.135.511.166.5.195.495.223.476.25.467.277.45.305.433.328.412.354.394.373.373.396.35.25.23.229.254.2.274.175.293.144.31.114.32.082.33.048.339.018.34V20h7v-3.555l.014-.324.047-.322.074-.315.103-.308.131-.297.154-.31.145-.317.12-.328.09-.334.067-.342.041-.344.014-.347V9.139L10 7.14V2H7zm1 1h1v4.861l6 2v2.696l-.016.324-.045.32-.074.317-.103.308-.133.295-.154.31-.143.317-.12.328-.09.334-.07.342-.04.346-.014.347v2.557H9v-.897l-.016-.394-.052-.39-.086-.385-.12-.375-.152-.364-.181-.351-.213-.33-.24-.313-.268-.289-.293-.266-.383-.341-.361-.366-.336-.388-.31-.407-.286-.43-.258-.443-.226-.46-.198-.475-.167-.484.646-.647 2.5 2.5V3z" style="fill:#222;fill-opacity:1;stroke:none;stroke-width:0"/></svg><svg aria-hidden="true" viewBox="0 0 32 32" id="quotes-left" xmlns="http://www.w3.org/2000/svg"><path d="M6.999 12.994a7.013 7.013 0 1 1-7.013 7.013l-.031-1.002c0-7.746 6.279-14.025 14.025-14.025v4.007a9.953 9.953 0 0 0-7.084 2.934c-.364.364-.696.752-.997 1.159a7.107 7.107 0 0 1 1.099-.086zm18.033 0a7.013 7.013 0 1 1-7.013 7.013l-.031-1.002c0-7.746 6.279-14.025 14.025-14.025v4.007a9.953 9.953 0 0 0-7.084 2.934c-.364.364-.696.752-.997 1.159a7.117 7.117 0 0 1 1.099-.086z"/></svg><svg aria-hidden="true" viewBox="0 0 32 32" id="quotes-right" xmlns="http://www.w3.org/2000/svg"><path d="M25.001 19.006a7.013 7.013 0 1 1 7.013-7.013l.031 1.002c0 7.746-6.279 14.025-14.025 14.025v-4.007a9.955 9.955 0 0 0 7.084-2.934c.364-.364.696-.751.997-1.159a7.107 7.107 0 0 1-1.099.086zm-18.033 0a7.013 7.013 0 1 1 7.013-7.013l.031 1.002c0 7.746-6.279 14.025-14.025 14.025v-4.007a9.955 9.955 0 0 0 7.084-2.934c.364-.364.696-.751.997-1.159a7.107 7.107 0 0 1-1.099.086z"/></svg><svg aria-hidden="true" viewBox="0 0 28 32" id="services--1" xmlns="http://www.w3.org/2000/svg"><path d="M13.5 1h-11a.5.5 0 0 0-.5.5v15a.5.5 0 0 0 .5.5h11.002c.251 0 1.498.074 1.498 1.5a.5.5 0 0 0 1 0V3.484C15.973 2.625 15.416 1 13.5 1zM15 16.456A2.798 2.798 0 0 0 13.5 16H3V2h10.5c1.396 0 1.494 1.363 1.5 1.5v12.956zM26.329 21H12.487c.006.001-.703.009-1.14-.419-.251-.247-.379-.61-.379-1.081a.5.5 0 0 0-1 0c0 .754.231 1.36.688 1.803.687.665 1.648.697 1.819.697h13.854c.389 0 .719-.157.931-.443.281-.379.275-.863.185-1.162-.563-1.853-3.541-5.883-4.379-6.996.807-1.241 3.815-5.94 4.379-7.793.091-.299.097-.782-.185-1.162-.212-.287-.542-.444-.931-.444h-8.787a.5.5 0 0 0 0 1h8.787c.099 0 .119.028.127.039.047.062.055.197.031.275-.596 1.961-4.412 7.772-4.451 7.831a.5.5 0 0 0 .021.579c.038.05 3.839 5.018 4.43 6.961.023.079.016.213-.031.276-.008.011-.028.039-.127.039zM1 31.5V.5a.5.5 0 0 0-1 0v31a.5.5 0 0 0 1 0z"/></svg><svg aria-hidden="true" viewBox="0 0 32 32" id="services--2" xmlns="http://www.w3.org/2000/svg"><path d="M28 2.25H4A2.754 2.754 0 0 0 1.25 5v16A2.754 2.754 0 0 0 4 23.75h8.806l-2.167 4.5h-4.64a.75.75 0 0 0 0 1.5h20a.75.75 0 0 0 0-1.5h-4.537l-2.25-4.5h8.787a2.754 2.754 0 0 0 2.75-2.75V5a2.754 2.754 0 0 0-2.75-2.75zM4 3.75h24c.69.001 1.249.56 1.25 1.25v11.25H2.75V5c.001-.69.56-1.249 1.25-1.25zm15.787 24.5h-7.482l2.166-4.5h3.065zm8.213-6H4A1.252 1.252 0 0 1 2.75 21v-3.25h26.5V21A1.252 1.252 0 0 1 28 22.25z"/></svg><svg viewBox="0 0 491.52 491.52" xml:space="preserve" id="services--3" xmlns="http://www.w3.org/2000/svg"><path d="M399.647 0H91.894C41.143 0 0 41.134 0 91.873v307.773c0 50.739 41.143 91.873 91.894 91.873h307.753c50.749 0 91.873-41.132 91.873-91.873V91.873C491.52 41.132 450.396 0 399.647 0zm50.913 399.647c0 28.121-22.788 50.913-50.913 50.913H91.894c-28.131 0-50.934-22.798-50.934-50.913V91.873c0-28.115 22.802-50.913 50.934-50.913h307.753c28.126 0 50.913 22.792 50.913 50.913v307.774z"/><path d="M389.023 182.23c-.005-.054-.018-.106-.024-.161a20.269 20.269 0 0 0-.279-1.828c-.057-.282-.14-.553-.208-.831-.092-.372-.173-.745-.286-1.113-.099-.322-.225-.631-.339-.946-.114-.314-.214-.63-.344-.94-.149-.355-.325-.694-.492-1.038-.125-.257-.235-.519-.372-.772a20.45 20.45 0 0 0-.96-1.59c-.028-.043-.051-.088-.079-.131a20.63 20.63 0 0 0-1.228-1.635l-.028-.038c-.127-.153-.269-.285-.399-.433-.304-.344-.606-.688-.932-1.01-.244-.242-.503-.461-.757-.688-.24-.215-.473-.436-.723-.64-.295-.24-.603-.457-.908-.679-.232-.169-.459-.344-.698-.503-.309-.205-.627-.387-.945-.574-.26-.153-.516-.312-.783-.454-.299-.158-.605-.296-.909-.438-.304-.143-.605-.289-.917-.417-.28-.115-.566-.21-.85-.311-.346-.124-.69-.252-1.045-.358-.276-.082-.557-.144-.836-.215-.365-.092-.728-.19-1.101-.262-.316-.062-.636-.099-.955-.146-.337-.049-.671-.109-1.013-.141-.457-.044-.916-.056-1.375-.069-.197-.006-.388-.03-.586-.03h-81.92c-11.311 0-20.48 9.169-20.48 20.48s9.169 20.48 20.48 20.48h25.353l-65.057 54.214-48.215-48.215c-7.998-7.998-20.965-7.998-28.963 0l-61.44 61.44c-7.998 7.998-7.998 20.965 0 28.963 7.998 7.998 20.965 7.998 28.963 0l46.958-46.959 46.958 46.959c.025.025.053.045.078.07.318.315.653.602.987.892.185.161.362.335.552.488.343.277.701.525 1.058.778.201.142.395.298.599.432.324.212.662.396.996.588.253.146.499.304.757.438.284.147.577.269.866.402.319.147.633.306.958.436.243.097.493.171.739.258.378.135.754.278 1.139.39.228.066.46.11.69.168.407.104.813.214 1.224.292.257.049.516.073.774.112.388.058.774.126 1.164.162.324.03.649.032.974.046.326.015.651.043.976.042.389-.001.778-.033 1.168-.056.263-.016.526-.016.788-.042.414-.04.825-.113 1.236-.178.237-.038.476-.06.712-.107.391-.077.777-.185 1.165-.284.254-.065.511-.116.763-.191.336-.1.664-.23.996-.348.299-.106.601-.2.896-.321.27-.111.531-.247.797-.37.349-.161.7-.313 1.041-.494.218-.116.427-.254.641-.379.376-.218.754-.432 1.119-.676.204-.137.398-.295.599-.44.357-.258.715-.511 1.058-.795.027-.023.057-.041.084-.063l89.289-74.408v38.194c0 11.311 9.169 20.48 20.48 20.48s20.48-9.169 20.48-20.48v-81.92l-.002-.048a21.79 21.79 0 0 0-.107-2.039z"/></svg><svg aria-hidden="true" viewBox="0 0 297 297" id="services--4" xmlns="http://www.w3.org/2000/svg"><path d="M78.939 79.115c-9.878 3.494-13.418 17.396-7.951 32.896 3.324 9.419 9.112 16.859 15.483 19.902 1.438.688 2.614 1.151 4.058 1.389 4.318 8.711 9.971 17.395 15.971 24.922V181.5H82.516c-29.656 0-54.016 24.868-54.016 54.525v27.676c0 3.035 1.87 5.797 4.617 7.088 42.568 20.012 82.802 26.212 116.246 26.211 17.605 0 33.378-1.719 46.618-4.045 41.695-7.326 67.631-21.811 68.722-22.424 2.471-1.387 3.797-3.998 3.797-6.83v-27.676c0-29.657-23.694-54.525-53.352-54.525H191.5v-25.331c6-7.018 10.66-14.905 14.587-22.821 3.609-.508 7.305-2.418 10.619-5.621 3.974-3.84 7.405-9.422 9.629-15.721 4.012-11.381 3.355-21.832-1.19-27.969 0-56.541-38.438-84.036-76.646-84.036-16.995 0-68.329.007-68.845 0-2.362-.042-4.609 1.021-6.113 2.841a7.825 7.825 0 0 0-1.643 6.537c2.471 12.281 7.065 23.356 13.658 33.145l-6.617 36.591zm26.221-15.656c-.04 7.989-1.803 13.596-4.978 15.793-1.642 1.137-3.692 1.465-5.609 1.438l4.104-22.785a98.15 98.15 0 0 0 6.483 5.554zm17.34 126.615v-17.611c8 5.26 16.357 8.486 25.644 8.486 9.971 0 19.356-3.717 27.356-9.678v18.803c0 2.057 1.042 3.923 2.339 5.32-1.718 11.412-16.761 31.056-29.13 44.459-12.529-13.59-26.852-32.5-29.141-43.637 1.816-1.434 2.932-3.649 2.932-6.142zm90.532-96.748c.444 2.127.546 7.805-1.451 13.47-2.321 6.575-5.674 9.925-7.158 10.823a7.837 7.837 0 0 0-10.098 4.09c-8.904 20.102-26.249 43.574-45.826 43.574-14.071 0-26.999-12.146-36.46-26.431 6.783 2.745 13.238 3.456 18.181 3.557 1.981 2.556 5.072 4.091 8.557 4.091h13.85c5.98 0 10.875-4.615 10.875-10.595v-3.409c0-5.98-4.895-10.996-10.875-10.996h-13.85c-3.943 0-7.383 2.198-9.277 5.348-2.943-.122-6.631-.6-10.519-2.052-10.921-4.078-18.951-13.638-23.93-28.451 4.366-.042 9.335-1.012 13.906-4.126 5.814-3.959 9.506-10.32 11.045-18.972 9.675 5.345 20.666 9.702 32.938 12.991 21.207 5.685 47.987 6.944 60.092 7.088zm-64.527-77.712c27.254 0 58.931 16.887 60.988 61.887h-.055c-24.317 0-100.683-4.664-119.677-61.887 16.014.152 46.381 0 58.744 0zM252.5 258.894c-8 4.118-29.965 13.513-60.161 18.742-35.136 6.087-88.839 7.581-147.839-18.958v-22.652c0-21.019 16.997-38.525 38.016-38.525h21.645c3.946 23 35.344 55.218 39.136 59.006 1.529 1.528 3.532 2.393 5.536 2.393 2.003 0 4.007-.916 5.536-2.444 3.792-3.788 35.19-35.955 39.137-58.955h21.643c21.02 0 37.352 17.507 37.352 38.525v22.868z"/></svg><svg viewBox="0 0 32 32" id="social--facebook" xmlns="http://www.w3.org/2000/svg"><path d="m21.95 5.005-3.306-.004c-3.206 0-5.277 2.124-5.277 5.415v2.495H10.05v4.515h3.317l-.004 9.575h4.641l.004-9.575h3.806l-.003-4.514h-3.803v-2.117c0-1.018.241-1.533 1.566-1.533l2.366-.001.01-4.256z"/></svg><svg viewBox="0 0 24 24" xml:space="preserve" id="social--google" xmlns="http://www.w3.org/2000/svg"><path d="M7.8 17.9c-3.2 0-5.9-2.6-5.9-5.9s2.6-5.9 5.9-5.9c1.5 0 2.9.6 4 1.5l-1.7 1.7c-.7-.5-1.5-.8-2.3-.8-2 0-3.5 1.6-3.5 3.5s1.6 3.5 3.5 3.5c1.6 0 2.8-1 3.2-2.3H7.8V11h5.5c.5 2.3-.6 6.9-5.5 6.9zM19.9 13v2.1h-2.1V13h-2.1v-2h2.1V8.9h2.1V11H22v2h-2.1z"/><path style="fill:none" d="M0 0h24v24H0z"/></svg><svg viewBox="0 0 490 448" id="social--vk" xmlns="http://www.w3.org/2000/svg"><g stroke="#449FDB"><path opacity=".3" d="M16 0v448"/><path d="M32 0v448"/><path opacity=".3" d="M48 0v448"/><path d="M64 0v448"/><path opacity=".3" d="M80 0v448"/><path d="M96 0v448"/><path opacity=".3" d="M112 0v448"/><path d="M128 0v448"/><path opacity=".3" d="M144 0v448"/><path d="M160 0v448"/><path opacity=".3" d="M176 0v448"/><path d="M192 0v448"/><path opacity=".3" d="M208 0v448"/><path d="M224 0v448"/><path opacity=".3" d="M240 0v448"/><path d="M256 0v448"/><path opacity=".3" d="M272 0v448"/><path d="M288 0v448"/><path opacity=".3" d="M304 0v448"/><path d="M320 0v448"/><path opacity=".3" d="M336 0v448"/><path d="M352 0v448"/><path opacity=".3" d="M368 0v448"/><path d="M384 0v448"/><path opacity=".3" d="M400 0v448"/><path d="M416 0v448"/><path opacity=".3" d="M432 0v448"/><path d="M448 0v448"/><path opacity=".3" d="M464 0v448"/><path d="M480 0v448"/><path opacity=".3" d="M0 16h490"/><path d="M0 32h490"/><path opacity=".3" d="M0 48h490"/><path d="M0 64h490"/><path opacity=".3" d="M0 80h490"/><path d="M0 96h490"/><path opacity=".3" d="M0 112h490"/><path d="M0 128h490"/><path opacity=".3" d="M0 144h490"/><path d="M0 160h490"/><path opacity=".3" d="M0 176h490"/><path d="M0 192h490"/><path opacity=".3" d="M0 208h490"/><path d="M0 224h490"/><path opacity=".3" d="M0 240h490"/><path d="M0 256h490"/><path opacity=".3" d="M0 272h490"/><path d="M0 288h490"/><path opacity=".3" d="M0 304h490"/><path d="M0 320h490"/><path opacity=".3" d="M0 336h490"/><path d="M0 352h490"/><path opacity=".3" d="M0 368h490"/><path d="M0 384h490"/><path opacity=".3" d="M0 400h490"/><path d="M0 416h490"/><path opacity=".3" d="M0 432h490"/></g><path d="M479.25 130c3.75 10.25-8 34.25-37.5 73.5C393.25 268 388 262 428 299.25c38.5 35.75 46.5 53 47.75 55.25 0 0 16 28-17.75 28.25l-64 1c-13.75 2.75-32-9.75-32-9.75-24-16.5-46.5-59.25-64-53.75 0 0-18 5.75-17.5 44.25.25 8.25-3.75 12.75-3.75 12.75s-4.5 4.75-13.25 5.5h-28.75c-63.25 4-119-54.25-119-54.25s-61-63-114.5-188.75c-3.5-8.25.25-12.25.25-12.25s3.75-4.75 14.25-4.75l68.5-.5c6.5 1 11 4.5 11 4.5s4 2.75 6 8c11.25 28 25.75 53.5 25.75 53.5 25 51.5 42 60.25 51.75 55 0 0 12.75-7.75 10-70-1-22.5-7.25-32.75-7.25-32.75-5.75-7.75-16.5-10-21.25-10.75-3.75-.5 2.5-9.5 10.75-13.5 12.25-6 34-6.25 59.75-6 20.25.25 26 1.5 33.75 3.25 23.75 5.75 15.75 27.75 15.75 80.75 0 17-3.25 40.75 9 48.5 5.25 3.5 18.25.5 50.25-54 0 0 15-26 26.75-56.25 2-5.5 6.25-7.75 6.25-7.75s4-2.25 9.5-1.5l72-.5c21.75-2.75 25.25 7.25 25.25 7.25z"/></svg><svg viewBox="0 0 32 32" id="social--youtube" xmlns="http://www.w3.org/2000/svg"><path d="M22.396 21.104H21.2v-.707c0-.299.298-.597.596-.597h.103c.302 0 .603.298.603.597v.707h-.106zM17.795 19.6c-.298 0-.6.2-.6.498v3.405c0 .298.205.5.6.5.301 0 .602-.202.602-.5v-3.5c-.002-.203-.301-.403-.602-.403zm7.406-1.9v6.497c0 1.604-1.402 2.803-3.003 2.803H9.797c-1.6 0-2.998-1.3-2.998-2.803V17.7c0-1.599 1.301-2.802 2.998-2.802H22.1c1.699 0 3.101 1.204 3.101 2.802zm-14.502 7.204v-6.809H12.2v-.992H8.1v.992h1.299v6.899l1.3-.09zm4.501-5.8h-1.203v4.492c0 .204-.197.301-.397.301-.101 0-.302-.097-.302-.395v-4.506h-1.3V23.8c0 .298 0 .696.301.899.602.398 1.698-.096 1.901-.697v.795h1v-5.693zm4.098 4.098V20.2c0-1.203-.901-1.899-1.998-.902v-2.299h-1.302v7.799h1.001l.104-.495c1.4 1.295 2.195.397 2.195-1.101zm3.997-.402h-.99v.703c0 .298-.205.5-.509.5h-.198c-.302 0-.494-.202-.494-.5v-1.401h2.191v-2.396c-.193-1.104-1.697-1.309-2.492-.706-.203.202-.408.405-.5.706-.103.3-.207.691-.207 1.294v1.8c0 3.096 3.5 2.705 3.199 0zm-4.9-9.801c.107.203.201.3.303.399.104.104.301.104.501.104.204 0 .298-.104.504-.203.097-.097.3-.3.396-.498v.498H21.5V7.301h-1.104v4.698c0 .301-.192.502-.494.502-.301 0-.498-.201-.498-.502V7.4h-1.198v5.101c.093.197.093.3.189.498zm-4.297-3.397c0-.6 0-1 .103-1.401.097-.3.301-.599.499-.798a1.66 1.66 0 0 1 .999-.301c.3 0 .598.098.803.2.197.101.396.3.498.498.104.203.195.401.301.603 0 .199.102.5.102.998V11c0 .602 0 .999-.102 1.202 0 .299-.104.496-.301.698a1.237 1.237 0 0 1-.498.498 1.86 1.86 0 0 1-.803.201c-.298 0-.599 0-.8-.099-.199-.103-.397-.203-.5-.399a5.108 5.108 0 0 1-.299-.703c-.102-.299-.102-.7-.102-1.197l.1-1.599zm1.102 2.397c0 .301.301.603.601.603.301 0 .596-.302.596-.603V8.798c0-.301-.295-.599-.596-.599-.3 0-.601.298-.601.599v3.201zM11.3 13.6h1.3V9.001L14.2 5h-1.503L11.9 8.001 10.999 5H9.6l1.7 4.001V13.6z"/></svg></svg>