<?xml version="1.0" encoding="utf-8"?><svg viewBox="0 0 32 32" xmlns="http://www.w3.org/2000/svg" xmlns:xlink="http://www.w3.org/1999/xlink"><style>:root>svg{display:none}:root>svg:target{display:block}</style><svg aria-hidden="true" viewBox="0 0 32 32" id="quotes-left" xmlns="http://www.w3.org/2000/svg"><path d="M6.999 12.994a7.013 7.013 0 1 1-7.013 7.013l-.031-1.002c0-7.746 6.279-14.025 14.025-14.025v4.007a9.953 9.953 0 0 0-7.084 2.934c-.364.364-.696.752-.997 1.159a7.107 7.107 0 0 1 1.099-.086zm18.033 0a7.013 7.013 0 1 1-7.013 7.013l-.031-1.002c0-7.746 6.279-14.025 14.025-14.025v4.007a9.953 9.953 0 0 0-7.084 2.934c-.364.364-.696.752-.997 1.159a7.117 7.117 0 0 1 1.099-.086z"/></svg><svg aria-hidden="true" viewBox="0 0 32 32" id="quotes-right" xmlns="http://www.w3.org/2000/svg"><path d="M25.001 19.006a7.013 7.013 0 1 1 7.013-7.013l.031 1.002c0 7.746-6.279 14.025-14.025 14.025v-4.007a9.955 9.955 0 0 0 7.084-2.934c.364-.364.696-.751.997-1.159a7.107 7.107 0 0 1-1.099.086zm-18.033 0a7.013 7.013 0 1 1 7.013-7.013l.031 1.002c0 7.746-6.279 14.025-14.025 14.025v-4.007a9.955 9.955 0 0 0 7.084-2.934c.364-.364.696-.751.997-1.159a7.107 7.107 0 0 1-1.099.086z"/></svg></svg>